<svg width="18" height="16" viewBox="0 0 18 16" fill="none" xmlns="http://www.w3.org/2000/svg">
<path fill-rule="evenodd" clip-rule="evenodd" d="M8.95513 4.65914L8.91947 4.0075C8.81254 2.31866 9.751 0.776073 11.236 0.177712C11.7824 -0.0350808 12.709 -0.0616799 13.3149 0.124513C13.5524 0.204311 14.0039 0.470223 14.3246 0.709614L14.9067 1.14846L15.5481 0.922407C15.9046 0.802672 16.3798 0.603218 16.5935 0.470223C16.7955 0.350566 16.9737 0.284029 16.9737 0.323967C16.9737 0.55002 16.5342 1.32131 16.1659 1.74682C15.667 2.34526 15.8095 2.39846 16.8193 1.99947C17.4251 1.77342 17.437 1.77342 17.3182 2.02607C17.2469 2.15907 16.8786 2.62451 16.4866 3.05002C15.8214 3.78145 15.7858 3.86125 15.7858 4.47295C15.7858 5.4171 15.3818 7.38519 14.9779 8.46233C14.2295 10.4836 12.6258 12.5714 11.0221 13.6219C8.76506 15.0981 5.75953 15.4704 3.22925 14.606C2.38583 14.3134 0.936523 13.5687 0.936523 13.4358C0.936523 13.3959 1.37603 13.3427 1.91065 13.3294C3.02729 13.3028 4.14394 12.957 5.09429 12.3453L5.73583 11.9198L4.99925 11.6406C3.95387 11.2416 3.01541 10.324 2.77785 9.45968C2.70652 9.18043 2.7303 9.16709 3.39555 9.16709L4.08457 9.15383L3.50247 8.84798C2.81345 8.46233 2.18387 7.8107 1.87498 7.1458C1.64925 6.6671 1.36422 5.45696 1.44736 5.3639C1.47107 5.32404 1.72058 5.40376 2.00568 5.51015C2.82534 5.8426 2.93226 5.76281 2.45708 5.2043C1.5661 4.1937 1.29289 2.69097 1.72058 1.26812L1.92254 0.629816L2.70652 1.49417C4.3103 3.23621 6.19911 4.27349 8.36114 4.57934L8.95513 4.65914Z" fill="white"/>
</svg>
