<svg width="17" height="16" viewBox="0 0 17 16" fill="none" xmlns="http://www.w3.org/2000/svg">
<path d="M8.9388 3.8978C6.66863 3.8978 4.83751 5.72933 4.83751 8C4.83751 10.2707 6.66863 12.1022 8.9388 12.1022C11.209 12.1022 13.0401 10.2707 13.0401 8C13.0401 5.72933 11.209 3.8978 8.9388 3.8978ZM8.9388 10.667C7.47176 10.667 6.27243 9.47094 6.27243 8C6.27243 6.52906 7.46819 5.33304 8.9388 5.33304C10.4094 5.33304 11.6052 6.52906 11.6052 8C11.6052 9.47094 10.4058 10.667 8.9388 10.667ZM14.1645 3.73C14.1645 4.26197 13.7361 4.68682 13.2078 4.68682C12.676 4.68682 12.2512 4.2584 12.2512 3.73C12.2512 3.20161 12.6796 2.77318 13.2078 2.77318C13.7361 2.77318 14.1645 3.20161 14.1645 3.73ZM16.8808 4.7011C16.8201 3.41939 16.5274 2.28406 15.5887 1.34866C14.6535 0.413254 13.5184 0.120495 12.237 0.0562312C10.9163 -0.0187437 6.95776 -0.0187437 5.63707 0.0562312C4.35921 0.116925 3.22413 0.409684 2.28537 1.34509C1.3466 2.28049 1.05748 3.41582 0.99323 4.69753C0.918272 6.01852 0.918272 9.97791 0.99323 11.2989C1.05391 12.5806 1.3466 13.7159 2.28537 14.6513C3.22413 15.5867 4.35564 15.8795 5.63707 15.9438C6.95776 16.0187 10.9163 16.0187 12.237 15.9438C13.5184 15.8831 14.6535 15.5903 15.5887 14.6513C16.5239 13.7159 16.8165 12.5806 16.8808 11.2989C16.9558 9.97791 16.9558 6.02209 16.8808 4.7011ZM15.1746 12.7163C14.8962 13.416 14.3572 13.9551 13.654 14.2372C12.601 14.6549 10.1024 14.5585 8.9388 14.5585C7.77516 14.5585 5.27298 14.6513 4.22357 14.2372C3.52396 13.9587 2.98498 13.4196 2.70299 12.7163C2.28537 11.6631 2.38174 9.1639 2.38174 8C2.38174 6.8361 2.28894 4.33337 2.70299 3.28372C2.98141 2.58396 3.52039 2.04485 4.22357 1.7628C5.27655 1.34509 7.77516 1.44148 8.9388 1.44148C10.1024 1.44148 12.6046 1.34866 13.654 1.7628C14.3536 2.04128 14.8926 2.58039 15.1746 3.28372C15.5922 4.33694 15.4959 6.8361 15.4959 8C15.4959 9.1639 15.5922 11.6666 15.1746 12.7163Z" fill="white"/>
</svg>
